<svg xmlns="http://www.w3.org/2000/svg" width="24" height="24" fill="none" viewBox="0 0 24 24">
  <path fill="#fff" d="M14 12c0 1.1-.9 2-2 2s-2-.9-2-2 .9-2 2-2 2 .9 2 2ZM8.48 8.45l-.71-.7A5.976 5.976 0 0 0 6 12c0 1.66.68 3.17 1.77 4.25l.71-.71C7.57 14.64 7 13.39 7 12c0-1.39.57-2.64 1.48-3.55Zm7.75-.7-.71.71c.91.9 1.48 2.15 1.48 3.54 0 1.39-.57 2.64-1.48 3.55l.71.71A6.017 6.017 0 0 0 18 12c0-1.66-.68-3.17-1.77-4.25ZM5.65 5.63l-.7-.71a9.968 9.968 0 0 0 0 14.16l.71-.71A8.954 8.954 0 0 1 3 12c0-2.49 1.02-4.74 2.65-6.37Zm13.4-.71-.71.71A8.954 8.954 0 0 1 21 12c0 2.49-1.02 4.74-2.65 6.37l.71.71C20.87 17.27 22 14.76 22 12s-1.13-5.27-2.95-7.08Z"/>
</svg>
