<svg xmlns="http://www.w3.org/2000/svg" width="24" height="24" fill="none" viewBox="0 0 24 24">
  <g clip-path="url(#a)">
    <path fill="#fff" d="M10 9.35 15 12l-5 2.65v-5.3ZM12 6a54.36 54.36 0 0 0-7.56.38 1.53 1.53 0 0 0-1.06 1.06A24.63 24.63 0 0 0 3 12a24.63 24.63 0 0 0 .38 4.56 1.53 1.53 0 0 0 1.06 1.06A54.35 54.35 0 0 0 12 18a54.35 54.35 0 0 0 7.56-.38 1.53 1.53 0 0 0 1.06-1.06A24.63 24.63 0 0 0 21 12a24.63 24.63 0 0 0-.38-4.56 1.53 1.53 0 0 0-1.06-1.06A54.36 54.36 0 0 0 12 6Zm0-1s6.25 0 7.81.42a2.51 2.51 0 0 1 1.77 1.77c.29 1.587.43 3.197.42 4.81.01 1.613-.13 3.223-.42 4.81a2.51 2.51 0 0 1-1.77 1.77C18.25 19 12 19 12 19s-6.25 0-7.81-.42a2.51 2.51 0 0 1-1.77-1.77A25.87 25.87 0 0 1 2 12a25.87 25.87 0 0 1 .42-4.81 2.51 2.51 0 0 1 1.77-1.77C5.75 5 12 5 12 5Z"/>
  </g>
  <defs>
    <clipPath id="a">
      <path fill="#fff" d="M0 0h24v24H0z"/>
    </clipPath>
  </defs>
</svg>
