<svg xmlns="http://www.w3.org/2000/svg" width="120" height="56" fill="none" viewBox="0 0 120 56">
  <g clip-path="url(#a)">
    <path fill="red" d="M43.973 21.123a3.578 3.578 0 0 0-2.526-2.526C39.22 18 30.285 18 30.285 18s-8.935 0-11.162.597a3.577 3.577 0 0 0-2.526 2.526C16 23.35 16 28 16 28s0 4.65.597 6.877a3.577 3.577 0 0 0 2.526 2.526C21.35 38 30.285 38 30.285 38s8.935 0 11.162-.597a3.578 3.578 0 0 0 2.526-2.526C44.57 32.65 44.57 28 44.57 28s-.002-4.65-.597-6.877Z"/>
    <path fill="#fff" d="M27.425 32.285 34.848 28l-7.423-4.285v8.57Zm23.177-1.281-3.207-11.585h2.798l1.124 5.251c.287 1.294.497 2.397.633 3.31h.082c.094-.655.306-1.75.633-3.291l1.164-5.27h2.799L53.38 31.004v5.557H50.6v-5.557h.002Zm6.868 5.19c-.565-.381-.967-.974-1.207-1.778-.237-.805-.357-1.872-.357-3.208V29.39c0-1.348.136-2.432.41-3.248.272-.816.698-1.413 1.276-1.787.579-.374 1.338-.563 2.28-.563.926 0 1.666.191 2.226.572.558.381.967.978 1.226 1.787.258.812.388 1.891.388 3.239v1.818c0 1.336-.127 2.408-.379 3.217-.252.812-.66 1.404-1.225 1.778-.565.374-1.331.562-2.298.562-.997.002-1.776-.19-2.34-.571Zm3.165-1.962c.156-.409.236-1.075.236-2.001v-3.902c0-.898-.078-1.557-.236-1.97-.157-.417-.432-.624-.828-.624-.38 0-.65.207-.806.623-.158.417-.235 1.073-.235 1.971v3.902c0 .926.075 1.594.226 2.001.15.41.42.614.816.614.395 0 .67-.204.827-.614Zm12.18 2.331H70.61l-.244-1.533h-.061c-.6 1.157-1.499 1.736-2.698 1.736-.83 0-1.444-.273-1.839-.816-.395-.546-.593-1.397-.593-2.555v-9.358h2.82v9.194c0 .56.061.957.184 1.195.122.237.326.357.613.357.245 0 .48-.075.706-.226.226-.15.39-.34.5-.571v-9.95h2.818v12.527Z"/>
    <path fill="#fff" d="M80.475 21.688h-2.798v14.875h-2.759V21.688H72.12V19.42h8.356v2.268Z"/>
    <path fill="#fff" d="M87.277 36.563H85.07l-.245-1.533h-.06c-.6 1.157-1.499 1.736-2.699 1.736-.83 0-1.443-.273-1.839-.816-.395-.546-.592-1.397-.592-2.555v-9.358h2.82v9.194c0 .56.06.957.183 1.195.122.237.327.357.614.357.244 0 .48-.075.705-.226.226-.15.39-.34.501-.571v-9.95h2.818v12.527Zm9.332-10.524c-.172-.79-.447-1.362-.828-1.717-.38-.355-.905-.532-1.573-.532a2.6 2.6 0 0 0-1.451.44c-.45.294-.798.677-1.042 1.155h-.021v-6.6h-2.717v17.776h2.329l.287-1.185h.06c.22.423.546.754.981 1.001.436.245.92.367 1.451.367.953 0 1.656-.44 2.105-1.317.45-.88.675-2.25.675-4.118v-1.982c0-1.4-.087-2.498-.256-3.288Zm-2.585 5.11c0 .913-.037 1.628-.113 2.145-.075.518-.2.887-.378 1.103a.871.871 0 0 1-.715.327c-.233 0-.447-.054-.645-.165a1.232 1.232 0 0 1-.48-.489v-7.11c.095-.34.26-.618.492-.837.23-.218.485-.326.755-.326a.76.76 0 0 1 .663.336c.158.226.266.602.327 1.133.061.532.092 1.287.092 2.268v1.615h.002Zm6.842.722c0 .805.023 1.407.07 1.809.047.402.146.694.297.88.15.183.381.274.693.274.421 0 .713-.164.868-.491.158-.327.242-.873.257-1.635l2.431.144c.014.108.021.259.021.45 0 1.156-.317 2.022-.95 2.593-.632.572-1.528.859-2.685.859-1.39 0-2.364-.435-2.921-1.308-.56-.872-.838-2.22-.838-4.045v-2.187c0-1.88.29-3.253.868-4.118.579-.866 1.569-1.299 2.973-1.299.966 0 1.71.177 2.227.532.517.355.882.905 1.094 1.656.211.75.317 1.785.317 3.106v2.145h-4.722v.635Zm.357-5.903c-.143.177-.237.466-.287.868-.047.402-.07 1.011-.07 1.83v.898h2.062v-.898c0-.805-.028-1.414-.082-1.83-.054-.416-.153-.708-.296-.88-.144-.169-.365-.256-.664-.256-.301.002-.522.092-.663.268Z"/>
  </g>
  <defs>
    <clipPath id="a">
      <path fill="#fff" d="M16 18h90v20H16z"/>
    </clipPath>
  </defs>
</svg>
