<svg xmlns="http://www.w3.org/2000/svg" width="24" height="24" fill="none" viewBox="0 0 24 24">
  <g clip-path="url(#a)">
    <path fill="#fff" d="m9.8 9.8-3.83 8.23 8.23-3.83 3.83-8.23L9.8 9.8Zm3.28 2.97a1.327 1.327 0 0 1-1.08.56c-.28 0-.54-.08-.77-.25-.29-.21-.48-.51-.54-.86-.06-.35.02-.71.23-.99.21-.29.51-.48.86-.54.35-.06.7.02.99.23.29.21.48.51.54.86.06.35-.02.7-.23.99ZM12 3c4.96 0 9 4.04 9 9s-4.04 9-9 9-9-4.04-9-9 4.04-9 9-9Zm0-1C6.48 2 2 6.48 2 12s4.48 10 10 10 10-4.48 10-10S17.52 2 12 2Z"/>
  </g>
  <defs>
    <clipPath id="a">
      <path fill="#fff" d="M0 0h24v24H0z"/>
    </clipPath>
  </defs>
</svg>
